<svg width="58" height="57" viewBox="0 0 58 57" fill="none" xmlns="http://www.w3.org/2000/svg">
<g clip-path="url(#clip0_5_951)">
<path d="M54.1321 52.7079C54.7471 49.1688 53.7996 45.8635 53.2131 42.389C52.5836 38.6536 52.3113 34.8606 52.1865 31.0783C51.9439 23.7158 52.5627 16.3482 52.2511 8.98448C52.1333 6.18642 51.2365 4.67718 48.5499 3.68285C45.5872 2.58718 42.1026 2.63025 38.984 2.43075C31.3581 1.94435 23.7106 1.98932 16.0884 2.51498C15.6343 2.54602 15.2866 2.73412 15.0345 2.99885C13.6482 2.57958 12.156 2.85192 11.1256 4.07995C9.69807 5.78108 9.77977 8.29415 9.81904 10.3747C9.88934 13.979 9.86971 17.5921 9.81904 21.1971C9.76204 25.2681 9.71137 29.3658 9.45804 33.4305C9.36621 34.9062 9.07487 38.0076 6.97411 38.1001C5.41167 38.1691 4.43697 36.017 3.93854 34.8397C3.60921 34.0613 2.27731 34.4565 2.34634 35.2716C2.51481 37.2818 3.11964 39.5815 5.09374 40.5384C6.92787 41.4264 8.98431 40.8057 10.3485 39.4212C12.5886 39.5757 14.93 39.5289 17.0257 39.3978C17.0631 39.3952 17.0948 39.3845 17.1309 39.3807C17.1423 39.5846 17.153 39.7892 17.1657 39.9944C17.4317 44.0553 17.7357 48.1017 17.2993 52.1614C17.1334 53.7124 19.2278 53.8916 19.9524 52.8815C21.0531 51.345 22.1481 49.8054 23.2425 48.2651C24.5523 49.7262 25.8626 51.1866 27.1724 52.6477C27.5669 53.0866 28.4637 53.2488 28.9609 52.8776C30.9882 51.3608 33.0155 49.8446 35.0434 48.3278C35.9206 50.1632 37.1771 52.4495 38.8548 52.6731C40.0461 52.8327 40.9778 51.9124 41.853 51.2639C43.0222 50.4007 44.1919 49.5355 45.3611 48.671C47.5144 50.1169 49.5683 51.6819 51.5215 53.3963C52.3195 54.0968 53.9155 53.9511 54.1321 52.7079ZM17.1448 28.5247C16.9801 31.1018 16.9371 33.6623 16.9991 36.2292C15.3886 36.2799 13.6026 36.468 11.8558 36.8081C12.5075 34.7054 12.3454 32.2747 12.3929 30.1593C12.4746 26.5493 12.5398 22.9406 12.5164 19.3306C12.4942 15.8473 12.1364 12.4083 11.9768 8.93635C11.9236 7.77482 11.8653 6.33525 12.5544 5.33522C13.2048 4.39155 13.9148 4.24778 14.5735 4.52645C14.6748 5.17688 15.1327 5.72535 15.9339 5.72028C16.4234 6.38338 16.7933 7.16872 16.9497 7.75392C18.7072 14.3938 17.5729 21.788 17.1448 28.5247ZM46.1027 45.4702C45.6834 45.2004 44.9646 45.1598 44.5504 45.4702C43.5421 46.2232 42.5339 46.9769 41.5262 47.7299C40.8758 48.2163 40.0898 49.051 39.2874 49.4792C38.2506 48.4823 37.4381 46.3296 36.9137 45.2796C36.5812 44.6139 35.4785 44.2738 34.8604 44.7412C32.7102 46.3663 30.5594 47.9934 28.4093 49.6198C26.9881 48.051 25.5669 46.4841 24.1457 44.9166C23.4693 44.1706 22.3679 44.486 21.86 45.2112C21.3419 45.9471 20.827 46.6855 20.3102 47.4227C20.2323 41.9628 19.3988 36.5066 19.5572 31.034C19.7554 24.206 20.8365 17.1994 19.5768 10.4158C19.2772 8.81285 18.9213 7.01418 18.0828 5.54928C24.0526 5.06098 30.042 4.86528 36.0314 4.99892C39.2602 5.07175 42.6282 5.03882 45.8183 5.59298C47.0799 5.81212 49.0553 6.14208 49.6297 7.49298C50.1738 8.77548 49.8311 11.2797 49.8539 12.661C49.954 19.2888 49.7019 25.9179 49.7577 32.5451C49.7849 35.7169 49.9331 38.8911 50.308 42.0426C50.5873 44.3828 51.1751 46.7793 51.2707 49.1613C49.6057 47.8528 47.8887 46.6159 46.1027 45.4702Z" fill="white"/>
<path d="M44.9526 36.9176C41.1178 36.6579 37.3108 36.5604 33.4671 36.6073C31.6089 36.6294 29.7596 36.7498 27.9071 36.8796C26.1604 37.0031 24.1964 36.9512 22.5643 37.6402C22.0374 37.8632 21.9778 38.5706 22.5643 38.7745C24.2426 39.3572 26.1477 39.2014 27.9071 39.2679C29.7615 39.3382 31.6121 39.4364 33.4671 39.4731C37.2956 39.5497 41.1229 39.6511 44.9526 39.7315C46.7779 39.7701 46.7437 37.0386 44.9526 36.9176Z" fill="white"/>
<path d="M46.6668 13.7838C43.9739 13.8174 41.3196 14.4248 38.728 15.0815C38.1035 15.2399 38.2371 16.2025 38.88 16.2013C41.4823 16.1962 44.0727 16.5281 46.6668 16.6699C48.5136 16.77 48.5358 13.7604 46.6668 13.7838Z" fill="white"/>
<path d="M46.4775 21.8646C44.3831 22.0166 42.2918 22.3397 40.2075 22.5886C39.1783 22.7108 39.1315 24.163 40.2075 24.2263C42.2918 24.3486 44.3901 24.5468 46.4775 24.5728C48.2325 24.5937 48.2053 21.7386 46.4775 21.8646Z" fill="white"/>
<path d="M29.433 31.6445C29.4267 32.3323 29.4229 33.0201 29.4159 33.7066C29.395 35.587 32.3204 35.5895 32.3362 33.7066C32.3438 32.9086 32.3533 32.1106 32.3622 31.3132C33.7726 31.2005 35.3433 31.0624 36.23 29.8572C37.28 28.4297 36.9982 25.7741 36.8734 24.135C36.6518 21.242 34.7296 20 32.4452 19.2774C32.454 17.8118 32.5269 16.2507 32.4699 14.7041C33.4344 15.2582 34.1336 16.2019 34.4674 17.6332C34.5871 18.1456 35.2736 18.0664 35.4301 17.6332C36.4358 14.8428 34.5839 12.7977 32.1931 12.0422C31.9607 10.7989 31.556 9.61397 30.8599 8.55757C30.6136 8.1839 30.1721 7.97363 29.7256 8.09587C29.5325 8.14907 29.3779 8.18137 29.262 8.35553C28.9492 8.82293 29.0011 9.06803 29.1259 9.57153C29.3165 10.3385 29.5166 10.9965 29.6408 11.7179C28.1822 11.7312 26.5919 11.9345 25.5646 13.0378C24.4759 14.2094 24.4018 16.0866 24.6083 17.5864C24.982 20.3015 27.2639 20.5922 29.5584 20.9386C29.4989 23.4865 29.4729 26.0363 29.4558 28.5855C29.0499 28.5766 28.6433 28.5709 28.236 28.5582C27.2664 28.5297 27.5457 28.7622 27.4298 27.5886C27.362 26.8888 27.4 26.1921 27.4558 25.4923C27.6274 23.356 24.2258 23.3351 24.1073 25.4923C24.0155 27.1706 23.975 29.861 25.457 31.0213C26.4355 31.7863 27.9757 31.7901 29.433 31.6445ZM32.4458 21.6486C33.1235 21.9576 33.7011 22.4067 34.0937 23.1059C34.658 24.1116 34.6118 26.1547 34.4167 27.3087C34.2065 28.5468 33.4224 28.5912 32.3958 28.5899C32.4236 26.2757 32.4458 23.9615 32.4458 21.6486ZM28.8738 18.4312C27.5134 18.1431 26.9079 17.8783 26.9219 16.4052C26.9352 14.9245 27.6217 14.2158 29.1113 14.1043C29.3374 14.0872 29.5578 14.0809 29.7744 14.0809C29.7719 15.5812 29.6838 17.0879 29.6224 18.587C29.371 18.5351 29.1195 18.4832 28.8738 18.4312Z" fill="white"/>
</g>
<defs>
<clipPath id="clip0_5_951">
<rect width="57.6333" height="57" fill="white"/>
</clipPath>
</defs>
</svg>
