<svg width="285" height="153" viewBox="0 0 285 153" fill="none" xmlns="http://www.w3.org/2000/svg">
<mask id="path-1-inside-1_18_7" fill="white">
<path d="M68 34C68 27.2754 66.0059 20.7019 62.27 15.1106C58.534 9.51934 53.2239 5.16148 47.0112 2.5881C40.7985 0.0147163 33.9623 -0.658597 27.3669 0.653301C20.7716 1.9652 14.7134 5.20338 9.95837 9.95837C5.20338 14.7134 1.9652 20.7716 0.6533 27.3669C-0.658597 33.9623 0.0147164 40.7985 2.5881 47.0112C5.16148 53.2239 9.51934 58.534 15.1106 62.27C20.7019 66.0059 27.2754 68 34 68V34H68Z"/>
</mask>
<path d="M68 34C68 27.2754 66.0059 20.7019 62.27 15.1106C58.534 9.51934 53.2239 5.16148 47.0112 2.5881C40.7985 0.0147163 33.9623 -0.658597 27.3669 0.653301C20.7716 1.9652 14.7134 5.20338 9.95837 9.95837C5.20338 14.7134 1.9652 20.7716 0.6533 27.3669C-0.658597 33.9623 0.0147164 40.7985 2.5881 47.0112C5.16148 53.2239 9.51934 58.534 15.1106 62.27C20.7019 66.0059 27.2754 68 34 68V34H68Z" fill="#F36E86" stroke="#F36E86" stroke-width="12.8444" mask="url(#path-1-inside-1_18_7)"/>
<path d="M127.861 93.2717C127.667 96.1375 127.569 99.2461 127.569 102.598V112.725C131.018 112.725 133.738 112.312 135.73 111.486C137.77 110.661 139.64 109.179 141.34 107.042V121.104C139.591 119.064 137.697 117.607 135.657 116.732C133.665 115.858 130.969 115.421 127.569 115.421V126.204C127.569 130.77 128.201 134.728 129.464 138.08H117.879C119.142 134.583 119.774 130.624 119.774 126.204V102.598C119.774 98.0318 119.142 94.0731 117.879 90.7216H144.837L144.618 102.889C142.821 99.7804 140.66 97.4246 138.134 95.8217C135.657 94.1703 132.475 93.3202 128.589 93.2717H127.861ZM165.532 100.849C166.746 100.849 167.79 100.97 168.665 101.213L167.135 111.559C164.9 108.402 162.812 106.823 160.869 106.823C159.849 106.823 159.047 107.333 158.464 108.353C157.882 109.325 157.493 110.539 157.299 111.996C157.153 113.454 157.08 115.348 157.08 117.679V126.86C157.08 131.28 157.687 135.02 158.902 138.08H147.754C148.92 135.02 149.503 131.28 149.503 126.86V116.951C149.503 111.656 148.701 107.503 147.098 104.492C149.721 103.375 152.369 102.136 155.04 100.776C155.477 101.553 155.89 102.695 156.279 104.2C156.667 105.706 156.91 107.018 157.007 108.135C157.784 105.269 158.829 103.35 160.14 102.379C161.452 101.359 163.249 100.849 165.532 100.849ZM177.339 97.4975C175.736 97.4975 174.424 96.9875 173.404 95.9674C172.433 94.9474 171.947 93.6845 171.947 92.1788C171.947 90.673 172.433 89.4102 173.404 88.3901C174.424 87.3701 175.736 86.8601 177.339 86.8601C178.893 86.8601 180.18 87.3701 181.2 88.3901C182.269 89.4102 182.803 90.673 182.803 92.1788C182.803 93.6845 182.269 94.9474 181.2 95.9674C180.18 96.9875 178.893 97.4975 177.339 97.4975ZM172.093 138.08C173.21 134.971 173.769 131.353 173.769 127.224V116.368C173.769 110.733 173.21 106.751 172.093 104.419C175.784 103.205 178.869 102.015 181.346 100.849V127.224C181.346 131.353 181.905 134.971 183.022 138.08H172.093ZM217.39 138.08H209.521C208.889 136.963 208.452 135.578 208.209 133.927C206.169 137.036 203.376 138.59 199.831 138.59C196.333 138.59 193.443 137.108 191.16 134.145C188.877 131.134 187.736 126.957 187.736 121.614C187.736 115.251 189.217 110.223 192.18 106.532C195.143 102.84 198.762 100.995 203.036 100.995C205.028 100.995 206.704 101.432 208.064 102.306V102.015C208.064 96.3803 207.505 92.4459 206.388 90.2116C209.448 89.2887 212.532 88.0987 215.641 86.6415V127.078C215.641 130.867 216.224 134.534 217.39 138.08ZM204.421 133.053C205.781 133.053 206.995 132.688 208.064 131.96V111.705C208.064 108.936 207.554 106.921 206.534 105.658C205.562 104.346 204.323 103.69 202.818 103.69C198.155 103.69 195.823 108.548 195.823 118.262C195.823 128.122 198.689 133.053 204.421 133.053ZM251.764 93.8545C252.736 93.8545 253.513 94.0003 254.096 94.2917L252.857 103.763C251.788 101.82 250.331 100.849 248.485 100.849C246.834 100.849 245.62 101.845 244.842 103.836C247.903 106.168 249.433 109.325 249.433 113.308C249.433 117.145 248.073 120.375 245.352 122.998C242.681 125.621 239.305 126.932 235.225 126.932C233.671 126.932 232.189 126.714 230.781 126.277C228.838 127.734 227.866 129.094 227.866 130.357C227.866 130.745 227.964 131.061 228.158 131.304C228.401 131.547 228.789 131.717 229.324 131.814C229.858 131.911 230.319 131.984 230.708 132.033C231.096 132.033 231.728 132.033 232.602 132.033H240.034C241.734 132.033 243.07 132.081 244.041 132.178C245.012 132.275 246.081 132.543 247.247 132.98C248.413 133.368 249.263 134.048 249.797 135.02C250.38 135.991 250.671 137.254 250.671 138.808C250.671 142.597 249.093 145.827 245.935 148.499C242.827 151.219 238.892 152.579 234.132 152.579C228.789 152.579 224.078 151.219 219.998 148.499L224.369 141.213C228.401 145.681 233.161 147.916 238.649 147.916C240.981 147.916 242.802 147.454 244.114 146.531C245.425 145.657 246.081 144.516 246.081 143.107C246.081 141.65 245.547 140.606 244.478 139.974C243.458 139.391 241.71 139.1 239.232 139.1H231.072C228.206 139.1 226.021 138.76 224.515 138.08C223.058 137.351 222.329 136.088 222.329 134.291C222.329 131.474 224.369 128.511 228.449 125.402C226.409 124.334 224.782 122.852 223.568 120.958C222.402 119.064 221.819 116.902 221.819 114.474C221.819 110.636 223.179 107.431 225.899 104.856C228.619 102.233 232.019 100.922 236.099 100.922C238.771 100.922 241.175 101.529 243.312 102.743C244.138 99.3918 245.255 97.0846 246.664 95.8217C248.121 94.5103 249.821 93.8545 251.764 93.8545ZM236.245 124.31C239.84 124.31 241.637 121.492 241.637 115.858C241.637 112.555 241.078 109.689 239.961 107.261C238.892 104.832 237.217 103.618 234.934 103.618C231.388 103.618 229.615 106.435 229.615 112.069C229.615 114.061 229.785 115.906 230.125 117.607C230.465 119.307 231.145 120.861 232.165 122.269C233.234 123.63 234.594 124.31 236.245 124.31ZM281.656 114.401V119.647H261.984C262.275 123.678 263.319 126.762 265.117 128.9C266.914 130.988 269.707 132.033 273.495 132.033C276.313 132.033 278.911 131.158 281.291 129.41C280.903 132.033 279.688 134.291 277.648 136.186C275.608 138.031 272.888 138.954 269.488 138.954C264.971 138.954 261.304 137.254 258.486 133.854C255.718 130.405 254.333 125.864 254.333 120.229C254.333 114.741 255.621 110.126 258.195 106.386C260.818 102.646 264.558 100.776 269.415 100.776C273.495 100.776 276.555 102.063 278.595 104.638C280.635 107.212 281.656 110.466 281.656 114.401ZM271.164 117.607C272.33 117.607 273.058 117.437 273.35 117.096C273.69 116.708 273.86 115.785 273.86 114.328C273.86 107.091 272.014 103.472 268.322 103.472C266.282 103.472 264.704 104.613 263.587 106.896C262.469 109.131 261.911 112.385 261.911 116.659V117.607H271.164Z" fill="white"/>
<path d="M142.488 44.1326C140.885 39.8096 139.234 36.8953 137.534 35.3895C135.834 33.8838 133.235 33.0823 129.738 32.9852V65.9902C129.738 70.5075 130.442 74.4661 131.851 77.8662H119.902C121.262 74.2718 121.942 70.3132 121.942 65.9902V32.9852C118.542 33.0823 115.992 33.9081 114.292 35.4624C112.592 36.9681 110.892 39.8582 109.192 44.1326L109.41 30.508H142.342L142.488 44.1326ZM172.994 65.9902C172.994 70.2646 173.65 74.2233 174.962 77.8662H166.364C165.733 75.049 165.417 71.1632 165.417 66.2088V52.2928C165.417 48.067 163.911 45.9541 160.9 45.9541C158.617 45.9541 156.504 47.1441 154.561 49.5241V66.8645C154.561 71.1389 155.144 74.8061 156.31 77.8662H145.235C146.401 74.8061 146.984 71.1389 146.984 66.8645V41.8011C146.984 36.1667 146.425 32.1352 145.308 29.7065C148.222 28.9294 151.307 27.7394 154.561 26.1365V47.4112C157.135 42.9426 160.608 40.7082 164.98 40.7082C167.506 40.7082 169.473 41.5582 170.881 43.2583C172.29 44.9097 172.994 47.4598 172.994 50.9085V65.9902ZM206.354 54.1871V59.4329H186.682C186.974 63.4645 188.018 66.5488 189.815 68.686C191.612 70.7746 194.405 71.8189 198.194 71.8189C201.011 71.8189 203.61 70.9446 205.99 69.196C205.601 71.8189 204.387 74.0776 202.347 75.9719C200.307 77.8176 197.587 78.7405 194.187 78.7405C189.669 78.7405 186.002 77.0405 183.185 73.6404C180.416 70.1918 179.032 65.6502 179.032 60.0158C179.032 54.5271 180.319 49.9127 182.893 46.1726C185.516 42.4325 189.256 40.5625 194.114 40.5625C198.194 40.5625 201.254 41.8497 203.294 44.424C205.334 46.9984 206.354 50.2527 206.354 54.1871ZM195.862 57.3929C197.028 57.3929 197.757 57.2229 198.048 56.8829C198.388 56.4943 198.558 55.5714 198.558 54.1142C198.558 46.8769 196.712 43.2583 193.021 43.2583C190.981 43.2583 189.402 44.3997 188.285 46.6826C187.168 48.917 186.609 52.1713 186.609 56.4457V57.3929H195.862Z" fill="white"/>
<path d="M90.1417 29.6992H39.9359C34.4679 29.6992 29.9941 34.173 29.9941 39.641V128.62C29.9941 132.845 32.4796 136.324 36.2077 137.816L37.699 143.781C38.4446 146.763 41.1786 149 44.4097 149C47.6407 149 50.3747 146.763 51.1204 143.781L52.3631 138.561H77.9631L79.2058 143.781C79.9514 146.763 82.6854 149 85.9165 149C89.1475 149 91.8815 146.763 92.6271 143.781L94.1184 137.816C97.8466 136.324 100.332 132.845 100.332 128.62V39.641C100.083 34.173 95.6097 29.6992 90.1417 29.6992ZM39.9359 34.6701H90.1417C92.8757 34.6701 95.1126 36.907 95.1126 39.641V65.4895H34.965V39.641C34.965 36.907 37.2019 34.6701 39.9359 34.6701ZM46.1495 142.538C45.9009 143.532 45.1553 144.029 44.1611 144.029C43.167 144.029 42.6699 143.532 42.4213 142.538L41.4272 138.313H46.8951L46.1495 142.538ZM87.6563 142.538C87.4077 143.532 86.6621 144.029 85.9165 144.029C85.1708 144.029 84.4252 143.532 84.1767 142.538L83.1825 138.313H88.6505L87.6563 142.538ZM90.1417 133.59H39.9359C37.2019 133.59 34.965 131.354 34.965 128.62V70.4604H95.1126V128.62C95.1126 131.354 92.8757 133.59 90.1417 133.59Z" fill="white"/>
<path d="M42.669 60.2702C44.1603 60.2702 45.1545 59.276 45.1545 57.7847V44.1148C45.1545 42.6236 44.1603 41.6294 42.669 41.6294C41.1778 41.6294 40.1836 42.6236 40.1836 44.1148V57.5362C40.1836 59.0275 41.4263 60.2702 42.669 60.2702Z" fill="white"/>
<path d="M42.669 77.6682C41.1778 77.6682 40.1836 78.6624 40.1836 80.1537V102.771C40.1836 104.262 41.1778 105.257 42.669 105.257C44.1603 105.257 45.1545 104.262 45.1545 102.771V80.1537C45.1545 78.9109 44.1603 77.6682 42.669 77.6682Z" fill="white"/>
</svg>
