<svg width="74" height="88" viewBox="0 0 74 88" fill="none" xmlns="http://www.w3.org/2000/svg">
<g clip-path="url(#clip0_5_928)">
<path d="M30.2489 10.1518C33.0811 10.7639 36.86 11.7744 40.7044 12.3722C48.3463 13.5614 55.9406 14.8863 63.2241 17.5909C66.9396 18.9706 68.4453 21.0989 68.0735 24.9742C67.553 30.3806 66.1386 35.6342 64.4922 40.7744C63.0454 45.2927 62.0162 49.9368 60.3657 54.3844C57.7633 61.3942 56.3427 68.7902 53.1421 75.6193C51.5401 79.0365 48.5195 80.3627 45.5646 81.7935C44.1061 82.4995 42.3582 81.6745 40.9474 80.8625C37.7811 79.0427 34.2411 78.382 30.7987 77.4239C24.7185 75.7329 18.3049 74.8857 12.7646 71.7598C7.55196 68.8194 3.71224 63.3014 6.54784 56.6301C9.69056 49.2389 11.707 41.3679 14.1785 33.6938C15.2703 30.303 16.3346 26.8997 17.2102 23.4467C18.3239 19.0575 18.485 13.7175 21.7621 10.215C24.1289 7.68182 27.4944 8.97921 30.2489 10.1518ZM59.5305 44.2594C62.155 37.1654 62.8361 31.2662 64.3719 25.5793C65.001 23.251 64.2365 22.1932 61.9901 20.837C59.2827 19.2029 56.2158 18.6535 53.2412 17.8176C47.2212 16.1264 40.9465 15.8403 34.857 14.4847C32.1806 13.889 29.4569 13.4607 26.7793 12.8172C25.406 12.4877 24.6149 12.2179 23.6651 13.3225C21.6883 15.6241 21.8797 19.083 21.184 21.8837C20.3327 25.3165 19.1446 28.651 18.1348 32.0379C16.1976 38.5314 14.1043 44.9767 12.0938 51.4485C11.3114 53.9684 10.5715 56.5026 9.80888 59.0292C9.1238 61.299 9.53939 63.4801 10.8813 65.303C12.7308 67.8167 14.9833 69.8692 18.1837 70.7295C23.5187 72.1647 28.8157 73.731 34.2091 74.9614C36.6754 75.5238 39.1795 76.1987 41.4424 77.2868C43.8513 78.4434 45.609 77.8389 47.4013 76.2734C50.0346 73.9713 51.2087 70.7855 52.2404 67.6606C54.974 59.3858 57.4404 51.0221 59.5305 44.2594Z" fill="white"/>
<path d="M49.8445 38.062C44.8979 35.8212 39.6605 36.0391 34.8322 34.4852C32.636 33.779 30.3176 33.4615 28.2115 32.4521C27.3449 32.0366 26.4128 31.5389 26.9262 30.3971C27.4382 29.2596 28.3986 29.109 29.5206 29.6948C33.7541 31.9027 38.3671 32.7573 43.0283 33.4417C46.7689 33.9912 50.4484 34.8332 54.1074 35.7868C54.9953 36.0181 55.3989 36.6847 55.9569 37.2501C56.5205 37.8223 56.6459 38.5258 56.2927 39.1479C55.9234 39.7992 55.1512 39.9076 54.4515 39.7559C52.7476 39.3889 51.3296 38.2252 49.8445 38.062Z" fill="white"/>
<path d="M29.1125 38.7272C34.5988 40.1641 39.9644 41.8874 45.5467 42.6071C47.4439 42.8515 49.4096 42.4643 51.1674 43.5913C51.6509 43.9007 52.2275 44.0707 52.5303 44.6003C52.9675 45.3637 53.2496 46.0761 52.0714 46.5102C51.0915 46.8725 50.0784 47.5239 49.1322 46.7225C47.32 45.1865 45.0493 45.3817 42.9653 44.8906C37.3386 43.5644 31.6448 42.5016 26.2045 40.4762C25.5601 40.2357 24.8878 39.9795 24.3465 39.5746C23.7345 39.1174 23.6872 38.2442 23.8753 37.6563C24.1515 36.79 24.9914 37.0603 25.6386 37.3065C26.821 37.761 27.9865 38.265 29.1125 38.7272Z" fill="white"/>
<path d="M36.5745 25.3729C34.4082 25.0405 32.4618 23.9239 30.3532 23.3233C29.1287 22.9747 28.4118 22.3601 28.8152 21.1368C29.3043 19.6515 30.5157 20.2818 31.4429 20.6023C33.0809 21.1684 34.6477 21.9397 36.2885 22.4926C41.7681 24.3367 47.2819 26.0754 52.9979 27.0492C54.1654 27.2488 55.2975 27.4363 55.9955 28.5173C56.3161 29.0134 56.4814 29.5802 56.2322 30.1663C55.9537 30.8248 55.3715 30.8536 54.7759 30.791C53.8556 30.6926 52.7844 30.8436 52.0433 30.4217C48.2506 28.2572 43.8873 27.949 39.8855 26.4996C38.8013 26.1053 37.7023 25.755 36.5745 25.3729Z" fill="white"/>
<path d="M44.5675 53.2448C38.7026 51.9074 32.8383 50.5639 26.9711 49.2336C25.0573 48.8002 23.0758 48.5479 21.3994 47.4326C20.6535 46.9363 19.694 46.3233 20.3726 45.2217C20.8969 44.3698 21.7833 44.6195 22.5579 44.9658C24.8992 46.0091 27.3871 46.5264 29.8483 47.188C35.413 48.683 41.1055 49.5302 46.7038 50.8374C47.7091 51.0721 48.6855 51.4345 49.6667 51.7639C50.3239 51.985 51.0466 52.2093 50.8473 53.1429C50.6858 53.9042 50.0609 54.1242 49.4014 54.4416C47.4476 55.3816 46.1935 53.5333 44.5675 53.2448Z" fill="white"/>
<path d="M24.8992 61.9189C25.3951 60.5861 26.2144 60.315 27.418 60.4967C29.2554 60.7729 31.0018 61.3457 32.7741 61.8562C36.3148 62.8741 39.8344 63.9545 43.5723 64.0966C44.9352 64.1489 46.3199 64.4916 47.3786 65.5351C48.4443 66.5858 48.2923 67.8184 46.9085 68.1497C46.0706 68.3497 45.1405 68.7794 44.2379 68.3581C39.5487 66.1698 34.357 65.6694 29.52 63.9592C27.9029 63.3875 26.2705 62.9545 24.8992 61.9189Z" fill="white"/>
</g>
<defs>
<clipPath id="clip0_5_928">
<rect width="52.1839" height="69.1183" fill="white" transform="matrix(0.940146 0.340772 -0.302698 0.953087 22.8813 1.81738)"/>
</clipPath>
</defs>
</svg>
