<svg width="79" height="85" viewBox="0 0 79 85" fill="none" xmlns="http://www.w3.org/2000/svg">
<g clip-path="url(#clip0_5_941)">
<path d="M65.0423 3.58159C65.2297 4.02876 65.3783 4.49123 65.4863 4.96389C66.0098 10.1071 66.2732 15.2898 67.0677 20.3928C68.0773 26.8936 69.5446 33.3633 70.7613 39.8501C71.4826 43.7099 72.1501 47.5842 72.795 51.4492C73.3822 54.9458 73.9367 58.4447 74.4802 61.9442C75.1314 65.6618 75.0773 69.4688 74.3206 73.1664C73.9076 73.3731 73.475 73.5381 73.0292 73.6589C64.6185 75.0825 56.2232 76.5708 47.8038 77.8636C39.3843 79.1564 30.8222 80.2838 22.2311 81.4678C21.4681 81.5622 20.7004 81.6142 19.9315 81.6235C17.2322 81.6968 16.5015 81.2536 15.852 78.6152C14.9953 75.1807 14.289 71.7031 13.5718 68.2262C12.0229 60.2292 10.3767 52.2497 9.08791 44.2131C8.19629 38.6459 7.71585 33.0071 7.25796 27.3777C7.02619 23.9556 7.16423 20.4974 5.53006 17.0607C24.9127 10.1643 44.8002 6.51816 65.0423 3.58159ZM8.44337 18.6918C8.66024 21.0858 8.99979 23.3511 9.05597 25.6355C9.25659 33.286 10.7089 40.6655 12.0341 48.1083C13.1854 54.5995 14.4675 61.0818 15.7168 67.5663C16.2582 70.3872 16.7996 73.2082 17.4703 75.9984C18.4118 79.8761 18.7383 80.1715 22.8076 79.6332C31.4896 78.4977 40.0806 77.3137 48.6817 75.9539C54.1632 75.0899 59.5876 73.8686 65.0478 72.8528C66.7456 72.5407 68.4661 72.4023 70.1829 72.2094C70.517 72.2121 70.8481 72.147 71.1563 72.0179C71.4644 71.8889 71.7432 71.6987 71.9757 71.4588C72.2082 71.2189 72.3896 70.9342 72.5088 70.6222C72.6281 70.3101 72.6828 69.9771 72.6696 69.6433C72.7918 67.8212 72.7559 65.9921 72.5621 64.1763C71.0006 54.5378 69.5786 44.857 67.6168 35.2895C65.6126 26.2189 64.1786 17.0317 63.3232 7.78184C63.1978 7.16763 63.0104 6.56771 62.764 5.9913C44.2793 8.68841 26.0634 11.9585 8.44337 18.6918Z" fill="white"/>
<path d="M15.7317 22.0414C18.533 20.4715 21.665 19.5842 24.8735 19.4515C34.3334 18.8108 43.7604 17.8439 53.1744 17.0092L53.752 16.9701C57.9261 16.6874 58.1343 17.0127 58.7774 21.1734C59.4105 25.51 60.3705 29.8244 60.971 34.1631C61.8972 40.8885 62.6615 47.6468 63.4359 54.3934C63.7431 56.9893 63.5043 57.1806 61.021 57.5349C58.2777 57.9288 55.5418 58.4316 52.7992 58.8363C50.3385 59.2 47.8719 59.4765 45.409 59.8076L28.8952 62.0209C28.0379 62.1337 27.1813 62.2574 26.3305 62.304C24.2707 62.4435 23.8518 62.0778 23.3323 60.0656C21.9847 54.8796 20.4432 49.7397 19.3332 44.5048C17.9897 38.2456 16.9475 31.9113 15.8626 25.5908C15.7364 24.4121 15.6927 23.2261 15.7317 22.0414ZM50.9123 48.5958L52.4531 47.5827C52.7906 47.9938 53.0521 48.4618 53.2255 48.9647C53.4203 50.3857 53.4196 51.831 53.5926 53.2535C53.6546 54.169 53.9019 55.0719 54.1146 56.2728C56.1852 55.9684 57.9797 55.7921 59.7392 55.4211C61.0665 55.1341 61.385 54.0177 60.4358 53.0966C59.4866 52.1755 58.5456 51.5386 57.3297 50.5589L58.3735 54.3312C56.8094 54.6779 55.7469 54.509 55.3177 53.3447C54.9432 52.4903 54.905 51.5261 55.2107 50.6447C55.5164 49.7634 56.1434 49.0299 56.9665 48.5909L54.7353 45.3917C54.0467 45.9114 53.2011 46.18 52.3389 46.1527C51.4767 46.1255 50.6497 45.8041 49.9954 45.2419C49.6966 45.0459 49.3594 44.9158 49.0064 44.8604C48.6534 44.805 48.2926 44.8256 47.9481 44.9207C46.2304 45.5845 44.9813 44.9246 43.75 43.8803C43.262 43.4644 42.7537 43.0719 42.2563 42.6786C40.2242 45.0059 40.2375 45.2021 41.6059 47.4633C42.123 48.2706 42.5893 49.1093 43.0022 49.9745C43.4006 50.8453 44.732 51.7515 43.5239 52.6654C43.0759 53.0023 41.8581 52.3184 40.9801 52.126C40.8276 52.1364 40.6474 52.2252 40.476 52.2806C39.8824 53.7003 41.1835 55.4516 39.7021 57.019L37.8571 54.8338L37.499 57.7923C35.7444 57.9111 35.3815 56.9175 35.3845 55.6691C35.4137 52.3826 35.469 48.9957 35.5206 45.5544L37.6568 44.7637L35.9457 42.7775C35.4159 43.3608 34.461 43.9729 34.434 44.5441C34.2632 48.6504 34.1912 52.761 34.3154 56.8583C34.3733 58.6828 34.9426 59.0055 36.7575 58.806C41.0419 58.3735 45.322 57.8756 49.6005 57.3559C50.4315 57.2094 51.2518 57.0075 52.0559 56.7517C51.7687 55.2602 51.4973 54.1618 51.3566 53.0546C51.1668 51.5456 51.0852 50.0183 50.9492 48.4947L50.9123 48.5958ZM20.8314 40.9217L21.4818 40.9871L22.4314 38.8426C23.9002 35.6337 25.2788 32.3871 26.8711 29.2247C27.6419 27.6725 28.5005 27.4173 29.8465 28.3772C31.114 29.2262 32.1973 30.3221 33.0317 31.5993C34.6878 34.3885 36.038 37.3517 37.5466 40.2276C37.9857 40.9107 38.4725 41.5619 39.0034 42.1763L44.6005 33.8048C46.211 31.3965 46.894 31.2955 48.5893 33.5346C51.6264 37.4784 54.6026 41.4921 57.5438 45.4752C58.1936 46.3399 58.8542 47.2039 59.8642 48.5369C59.998 47.9671 60.0795 47.3862 60.108 46.8015C59.3935 41.1019 58.6798 35.4132 57.9108 29.7173C57.5388 26.9725 57.0788 24.2227 56.6095 21.4954C56.233 19.3312 55.8948 19.0257 53.8204 19.1114C50.1852 19.27 46.5457 19.3632 42.9122 19.7079C36.2432 20.3347 29.5837 21.1032 22.9337 21.8492C21.8943 21.9686 20.8766 22.2329 19.9104 22.6342C17.7801 23.5121 17.701 23.6379 18.0376 25.8595C18.6113 29.6417 19.3172 33.4369 19.9867 37.1797C20.3208 38.3943 20.5816 39.6576 20.8532 40.9202L20.8314 40.9217ZM32.9555 41.3049L33.6471 41.1705C33.8265 40.4248 34.3684 39.5341 34.1425 38.9472C32.9696 36.0158 32.1197 32.8435 29.3625 30.4464C26.6865 33.2881 25.7316 36.6483 24.9323 40.0418C24.8042 40.576 25.4546 41.2874 26.0197 42.5191C26.7703 41.1545 27.1858 40.338 27.6595 39.5724C28.7135 37.8368 29.9646 37.7192 31.2937 39.2387C31.8961 39.8876 32.4273 40.6181 32.9773 41.3034L32.9555 41.3049ZM53.626 43.5618L46.9508 34.8828C46.0075 36.151 45.2724 37.0986 44.5839 38.0868C44.0834 38.8827 43.9136 39.8427 44.1109 40.7621C44.3081 41.6814 44.8568 42.4873 45.6398 43.0078C45.8885 43.1039 46.1541 43.1489 46.4206 43.1403C46.6871 43.1316 46.9491 43.0695 47.1911 42.9575C49.4331 41.9516 49.4403 41.8964 51.2085 43.5941C51.8609 44.174 52.4415 44.8244 53.626 43.5618ZM29.6049 41.1377L28.2594 43.4185C30.8836 44.4999 30.976 44.5702 30.9365 47.0582C30.897 49.5462 30.7119 51.8251 30.6541 54.2049C30.435 55.8867 30.7577 57.5945 31.5755 59.0803C31.921 58.2521 32.0882 57.3603 32.0661 56.4632C32.0876 52.7392 31.9224 49.006 32.1648 45.3109C32.3305 43.2304 31.607 42.086 29.6049 41.1377ZM25.2568 55.6653C25.3537 59.3593 26.191 60.2442 29.1252 59.5966L28.237 56.6678C26.918 57.8848 26.918 57.8848 25.2576 55.6762L25.2568 55.6653ZM25.1478 51.4684L26.0932 51.5248L26.3917 45.2639L25.798 45.2275L25.1478 51.4684ZM37.7793 49.321C39.2091 48.4468 38.9664 47.7735 38.242 47.1C38.1598 47.0179 37.9041 47.1228 37.5772 47.145L37.7793 49.321ZM23.2219 46.3107L22.6609 46.2721L22.573 47.7232L23.1224 47.7517L23.2219 46.3107Z" fill="white"/>
<path d="M46.0109 46.7052C46.931 49.9607 47.3118 53.3448 47.1383 56.7234C46.2506 56.2251 45.3704 56.0001 45.3381 55.6848C45.0839 53.0634 44.9816 50.4207 44.8582 47.7905C44.8464 47.6161 45.216 47.4159 46.0109 46.7052Z" fill="white"/>
<path d="M50.9396 48.5064C50.8832 50.0977 50.8049 51.6906 50.771 53.2914C50.753 54.1575 50.8472 55.2241 49.6751 55.2159C48.5031 55.2077 48.1911 54.3201 48.2568 53.1879C48.3537 51.3858 48.2755 49.5846 48.3397 47.7847C48.3716 46.9614 48.348 45.9667 49.84 46.1722C50.1772 46.9486 50.5407 47.7889 50.9143 48.6176L50.9396 48.5064Z" fill="white"/>
</g>
<defs>
<clipPath id="clip0_5_941">
<rect width="72.68" height="78.8685" fill="white" transform="translate(0.893555 5.85132) rotate(-3.87451)"/>
</clipPath>
</defs>
</svg>
